# xmcd
#
# Track frame offsets: 
#        150
#        15300
#        28677
#        43393
#        57144
#        68244
#        83284
#        96253
#        111280
#        125491
#        138626
#        167746
#        181918
#        197802
#        211758
#        222695
#        235707
#        249693
#        262373
#        275528
#
# Disc length: 3867 seconds
#
# Revision: 1
# Processed by: cddbd v1.5.2PL0 Copyright (c) Steve Scherf et al.
# Submitted via: ExactAudioCopy v1.1
#
DISCID=2c0f1914
DTITLE=Various Artist - Deep South: The Story Of The Blues
DYEAR=2012
DGENRE=Blues
TTITLE0=Mamie Smith Accompanied By Her Jazz Hounds - Crazy Blues
TTITLE1=Gertrude 'Ma Rainey Accompanied By Lovie Austin And Her Blues 
TTITLE1=Serenaders - Southern Blues
TTITLE2=Bessie Smith - Cold In Hands Blues
TTITLE3=Bessie Smith - In The House Blues
TTITLE4=Ida Cox Accompanied By Lovie Austin And Her Blues Serenaders /
TTITLE4=Wild Woman Don't Have The Blues
TTITLE5=Ida Cox - Coffin Blues
TTITLE6=Bertha Chippie Hill - Trouble In Mind
TTITLE7=Alberta Hunter - Thomas Waller - Beale Street Blues
TTITLE8=Victoria Spivey - Dirty T.B. Blues
TTITLE9=Blind Lemon Jefferson - Black Snake Moan
TTITLE10=Son House - My Black Mama (Part 1 and 2)
TTITLE11=Willie Brown - M And O Blues
TTITLE12=Willie Brown - Make Me A Pallet On The Floor
TTITLE13=Big Bill (Broonzy) - Bad Luck Blues
TTITLE14=Robert Johnson - Cross Road Blues
TTITLE15=Leadbelly - Fannin Street
TTITLE16=Sonny Boy Williamson - Mattie Mae Blues
TTITLE17=Big Joe Williams - Please Don't Go
TTITLE18=Big Boy Crudup - That's All Right
TTITLE19=Lightnin' Hopkins - Santa Fe Blues
EXTD=
EXTT0=
EXTT1=
EXTT2=
EXTT3=
EXTT4=
EXTT5=
EXTT6=
EXTT7=
EXTT8=
EXTT9=
EXTT10=
EXTT11=
EXTT12=
EXTT13=
EXTT14=
EXTT15=
EXTT16=
EXTT17=
EXTT18=
EXTT19=
PLAYORDER=
